<svg width="100" height="100" viewBox="0 0 100 100" fill="none" xmlns="http://www.w3.org/2000/svg">
<rect width="100" height="100" rx="15" fill="black"/>
<path d="M39.0698 78C38.0031 78 37.2351 77.4667 36.7658 76.4L17.7578 31.92C17.2884 30.7253 17.2458 29.7867 17.6298 29.104C18.0564 28.3787 18.7818 28.016 19.8058 28.016C20.8724 28.016 21.6404 28.5493 22.1098 29.616L39.0698 70.192L55.9658 29.744C56.4351 28.592 57.2671 28.016 58.4618 28.016C59.4431 28.016 60.1044 28.4 60.4458 29.168C60.7871 29.8933 60.7658 30.7253 60.3818 31.664L41.3098 76.4C40.8404 77.4667 40.0938 78 39.0698 78Z" fill="white"/>
<path d="M64.6765 78.64C61.2205 78.64 57.9778 77.9787 54.9485 76.656C51.9618 75.3333 49.3165 73.4987 47.0125 71.152C44.7512 68.7627 42.9805 66.032 41.7005 62.96C40.4205 59.8453 39.7805 56.5173 39.7805 52.976C39.7805 49.4773 40.3992 46.192 41.6365 43.12C42.9165 40.0053 44.6872 37.2747 46.9485 34.928C49.2525 32.5813 51.8978 30.7467 54.8845 29.424C57.9138 28.0587 61.1778 27.376 64.6765 27.376C67.7485 27.376 70.5432 27.824 73.0605 28.72C75.5778 29.616 78.0098 31.0453 80.3565 33.008C80.9112 33.4347 81.1458 33.9893 81.0605 34.672C80.9752 35.312 80.6552 35.76 80.1005 36.016C79.9725 36.528 79.5672 36.848 78.8845 36.976C78.2445 37.104 77.6045 36.912 76.9645 36.4C75.3005 34.9493 73.4872 33.8827 71.5245 33.2C69.5618 32.4747 67.2792 32.112 64.6765 32.112C61.9032 32.112 59.3005 32.6667 56.8685 33.776C54.4792 34.8853 52.3672 36.4 50.5325 38.32C48.6978 40.24 47.2472 42.4587 46.1805 44.976C45.1565 47.4933 44.6445 50.16 44.6445 52.976C44.6445 55.8773 45.1565 58.5867 46.1805 61.104C47.2472 63.6213 48.6978 65.84 50.5325 67.76C52.3672 69.68 54.4792 71.1947 56.8685 72.304C59.3005 73.3707 61.9032 73.904 64.6765 73.904C69.2845 73.904 73.4872 72.4107 77.2845 69.424C78.0525 68.8267 78.8632 68.7413 79.7165 69.168C80.6125 69.5947 81.0605 70.32 81.0605 71.344C81.0605 72.0267 80.8258 72.624 80.3565 73.136C78.1805 75.1413 75.7485 76.5707 73.0605 77.424C70.3725 78.2347 67.5778 78.64 64.6765 78.64Z" fill="#FF8000"/>
</svg>
