<svg width="259" height="259" viewBox="0 0 259 259" fill="none" xmlns="http://www.w3.org/2000/svg">
<circle cx="129.5" cy="129.5" r="129.5" fill="black"/>
<circle cx="130" cy="129" r="125" fill="#FF8000"/>
<circle cx="130.5" cy="129.5" r="117.5" fill="black"/>
<g filter="url(#filter0_f)">
<rect x="102" y="100" width="131" height="57" fill="#FF8000"/>
</g>
<path d="M48.5566 114.592L38.8975 144H33.0117L23.3936 114.592H30.0791L35.9443 134.218L41.8301 114.592H48.5566ZM71.9766 144H51.3867V114.592H57.2725V138.114H71.9766V144ZM95.7246 144H72.9609L85.5117 120.478H72.9609V114.592H95.7246L83.2148 138.114H95.7246V144Z" fill="white"/>
<path d="M128.188 138.703C127.146 139.599 125.979 140.286 124.688 140.766C123.396 141.245 122.057 141.484 120.672 141.484C119.609 141.484 118.583 141.344 117.594 141.062C116.615 140.792 115.693 140.406 114.828 139.906C113.974 139.396 113.193 138.786 112.484 138.078C111.776 137.37 111.167 136.589 110.656 135.734C110.156 134.87 109.766 133.948 109.484 132.969C109.214 131.979 109.078 130.953 109.078 129.891C109.078 128.828 109.214 127.802 109.484 126.812C109.766 125.823 110.156 124.901 110.656 124.047C111.167 123.182 111.776 122.396 112.484 121.688C113.193 120.979 113.974 120.375 114.828 119.875C115.693 119.365 116.615 118.974 117.594 118.703C118.583 118.422 119.609 118.281 120.672 118.281C122.057 118.281 123.396 118.521 124.688 119C125.979 119.469 127.146 120.156 128.188 121.062L125.812 124.969C125.156 124.26 124.38 123.719 123.484 123.344C122.589 122.958 121.651 122.766 120.672 122.766C119.682 122.766 118.755 122.953 117.891 123.328C117.026 123.703 116.271 124.214 115.625 124.859C114.979 125.495 114.469 126.25 114.094 127.125C113.719 127.99 113.531 128.911 113.531 129.891C113.531 130.87 113.719 131.792 114.094 132.656C114.469 133.51 114.979 134.26 115.625 134.906C116.271 135.552 117.026 136.062 117.891 136.438C118.755 136.812 119.682 137 120.672 137C121.651 137 122.589 136.812 123.484 136.438C124.38 136.052 125.156 135.505 125.812 134.797L128.188 138.703ZM135.281 141H130.797V118.594H135.281V141ZM157.375 141H152.578L143.938 126.25V141H139.453V118.594H144.25L152.891 133.359V118.594H157.375V141ZM176.906 141H161.547V118.594H176.906V123.078H166.031V127.562H173.391V132.047H166.031V136.516H176.906V141ZM202.281 141H197.812V125C197.812 124.688 197.75 124.396 197.625 124.125C197.51 123.854 197.349 123.62 197.141 123.422C196.943 123.214 196.708 123.052 196.438 122.938C196.167 122.823 195.875 122.766 195.562 122.766C195.25 122.766 194.958 122.823 194.688 122.938C194.417 123.052 194.177 123.214 193.969 123.422C193.771 123.62 193.615 123.854 193.5 124.125C193.385 124.396 193.328 124.688 193.328 125V141H188.844V125C188.844 124.688 188.786 124.396 188.672 124.125C188.557 123.854 188.396 123.62 188.188 123.422C187.99 123.214 187.755 123.052 187.484 122.938C187.214 122.823 186.922 122.766 186.609 122.766C186.297 122.766 186.005 122.823 185.734 122.938C185.464 123.052 185.224 123.214 185.016 123.422C184.818 123.62 184.661 123.854 184.547 124.125C184.432 124.396 184.375 124.688 184.375 125V141H179.891V125C179.891 124.073 180.062 123.203 180.406 122.391C180.76 121.568 181.24 120.854 181.844 120.25C182.458 119.635 183.172 119.156 183.984 118.812C184.807 118.458 185.682 118.281 186.609 118.281C187.443 118.281 188.245 118.432 189.016 118.734C189.786 119.026 190.479 119.453 191.094 120.016C191.708 119.453 192.396 119.026 193.156 118.734C193.927 118.432 194.729 118.281 195.562 118.281C196.49 118.281 197.359 118.458 198.172 118.812C198.995 119.156 199.708 119.635 200.312 120.25C200.927 120.854 201.406 121.568 201.75 122.391C202.104 123.203 202.281 124.073 202.281 125V141ZM219.484 132.047V127.562C219.484 126.948 219.365 126.37 219.125 125.828C218.896 125.276 218.578 124.797 218.172 124.391C217.766 123.984 217.286 123.667 216.734 123.438C216.193 123.198 215.615 123.078 215 123.078C214.385 123.078 213.802 123.198 213.25 123.438C212.708 123.667 212.234 123.984 211.828 124.391C211.422 124.797 211.099 125.276 210.859 125.828C210.63 126.37 210.516 126.948 210.516 127.562V132.047H219.484ZM223.969 141H219.484V136.516H210.516V141H206.047V127.562C206.047 126.323 206.281 125.161 206.75 124.078C207.219 122.984 207.854 122.031 208.656 121.219C209.469 120.406 210.417 119.766 211.5 119.297C212.594 118.828 213.76 118.594 215 118.594C216.24 118.594 217.401 118.828 218.484 119.297C219.578 119.766 220.531 120.406 221.344 121.219C222.156 122.031 222.797 122.984 223.266 124.078C223.734 125.161 223.969 126.323 223.969 127.562V141Z" fill="white"/>
<defs>
<filter id="filter0_f" x="98" y="96" width="139" height="65" filterUnits="userSpaceOnUse" color-interpolation-filters="sRGB">
<feFlood flood-opacity="0" result="BackgroundImageFix"/>
<feBlend mode="normal" in="SourceGraphic" in2="BackgroundImageFix" result="shape"/>
<feGaussianBlur stdDeviation="2" result="effect1_foregroundBlur"/>
</filter>
</defs>
</svg>
